name rise44.8762peak52.3436fall86.788.mot
datacolumns 19
datarows 23
range 15.78494000000000 15.82160800000000
endheader
time	ground_force1_vx	ground_force1_vy	ground_force1_vz	ground_force1_px	ground_force1_py	ground_force1_pz	ground_force2_vx	ground_force2_vy	ground_force2_vz	ground_force2_px	ground_force2_py	ground_force2_pz	ground_torque1_x	ground_torque1_y	ground_torque1_z	ground_torque2_x	ground_torque2_y	ground_torque2_z	
15.78494000000000	-7.67128500000000	40.99721300000000	-10.15580500000000	0.27610100000000	0.00000000000000	0.09385900000000	-42.14102000000000	812.54968299999996	-69.80854700000000	0.06689300000000	0.00000000000000	-0.10317200000000	0.00000000000000	-5.27551200000000	0.00000000000000	0.00000000000000	-15.53995600000000	0.00000000000000	
15.78660700000000	-8.35428700000000	47.95061300000000	-11.38349500000000	0.28014200000000	0.00000000000000	0.09496600000000	-42.47832900000000	810.42777899999999	-69.48433000000000	0.06629700000000	0.00000000000000	-0.10308800000000	0.00000000000000	-5.99782800000000	0.00000000000000	0.00000000000000	-15.46488000000000	0.00000000000000	
15.78826700000000	-8.87635800000000	54.96759800000000	-12.48653400000000	0.28376600000000	0.00000000000000	0.09599300000000	-42.82426100000000	808.16632100000004	-69.12730300000000	0.06570700000000	0.00000000000000	-0.10300000000000	0.00000000000000	-6.67216200000000	0.00000000000000	0.00000000000000	-15.39183800000000	0.00000000000000	
15.78994100000000	-9.21653300000000	61.95679600000000	-13.43828600000000	0.28703800000000	0.00000000000000	0.09694900000000	-43.17912600000000	805.76468299999999	-68.73741699999999	0.06512200000000	0.00000000000000	-0.10290600000000	0.00000000000000	-7.28343900000000	0.00000000000000	0.00000000000000	-15.32100700000000	0.00000000000000	
15.79160000000000	-9.36282400000000	68.85013700000000	-14.22148800000000	0.29000800000000	0.00000000000000	0.09784400000000	-43.54318000000000	803.22223699999995	-68.31467400000000	0.06454400000000	0.00000000000000	-0.10280700000000	0.00000000000000	-7.82123600000000	0.00000000000000	0.00000000000000	-15.25254600000000	0.00000000000000	
15.79327500000000	-9.31203000000000	75.60486100000000	-14.82831000000000	0.29272000000000	0.00000000000000	0.09868500000000	-43.91661700000000	800.53834500000005	-67.85912600000000	0.06397100000000	0.00000000000000	-0.10270400000000	0.00000000000000	-8.27994500000000	0.00000000000000	0.00000000000000	-15.18660200000000	0.00000000000000	
15.79493400000000	-9.06885400000000	82.20309800000000	-15.25965000000000	0.29520800000000	0.00000000000000	0.09947900000000	-44.29956800000000	797.71235200000001	-67.37087699999999	0.06340400000000	0.00000000000000	-0.10259500000000	0.00000000000000	-8.65850500000000	0.00000000000000	0.00000000000000	-15.12330700000000	0.00000000000000	
15.79660900000000	-8.64454100000000	88.64947400000000	-15.52382200000000	0.29750100000000	0.00000000000000	0.10023000000000	-44.69209700000000	794.74358700000005	-66.85008300000000	0.06284300000000	0.00000000000000	-0.10248200000000	0.00000000000000	-8.95980700000000	0.00000000000000	0.00000000000000	-15.06277300000000	0.00000000000000	
15.79827400000000	-8.05519900000000	94.96726800000000	-15.63486700000000	0.29962400000000	0.00000000000000	0.10094300000000	-45.09419700000000	791.63134800000000	-66.29695000000000	0.06228800000000	0.00000000000000	-0.10236300000000	0.00000000000000	-9.18988300000000	0.00000000000000	0.00000000000000	-15.00509700000000	0.00000000000000	
15.79994100000000	-7.32002300000000	101.19369600000000	-15.61068800000000	0.30159900000000	0.00000000000000	0.10162200000000	-45.50578900000000	788.37490800000000	-65.71173800000000	0.06174000000000	0.00000000000000	-0.10223900000000	0.00000000000000	-9.35696200000000	0.00000000000000	0.00000000000000	-14.95035700000000	0.00000000000000	
15.80160300000000	-6.45956900000000	107.37486500000000	-15.47118900000000	0.30344100000000	0.00000000000000	0.10226900000000	-45.92672000000000	784.97350500000005	-65.09476100000001	0.06119900000000	0.00000000000000	-0.10210900000000	0.00000000000000	-9.47052700000000	0.00000000000000	0.00000000000000	-14.89860900000000	0.00000000000000	
15.80327400000000	-5.49422000000000	113.56086600000000	-15.23657700000000	0.30516600000000	0.00000000000000	0.10288800000000	-46.35675600000000	781.42634399999997	-64.44638300000000	0.06066500000000	0.00000000000000	-0.10197500000000	0.00000000000000	-9.54042100000000	0.00000000000000	0.00000000000000	-14.84989100000000	0.00000000000000	
15.80494200000000	-4.44292500000000	119.80136600000000	-14.92592300000000	0.30678700000000	0.00000000000000	0.10348000000000	-46.79558400000000	777.73259099999996	-63.76702200000000	0.06013700000000	0.00000000000000	-0.10183500000000	0.00000000000000	-9.57608100000000	0.00000000000000	0.00000000000000	-14.80421900000000	0.00000000000000	
15.80660100000000	-3.32227000000000	126.14197100000000	-14.55607000000000	0.30831500000000	0.00000000000000	0.10404900000000	-47.24281100000000	773.89137400000004	-63.05714900000000	0.05961800000000	0.00000000000000	-0.10168900000000	0.00000000000000	-9.58594000000000	0.00000000000000	0.00000000000000	-14.76158600000000	0.00000000000000	
15.80827400000000	-2.14588600000000	132.62149199999999	-14.14088400000000	0.30975800000000	0.00000000000000	0.10459500000000	-47.69795600000000	769.90178500000002	-62.31729000000000	0.05910600000000	0.00000000000000	-0.10153800000000	0.00000000000000	-9.57700000000000	0.00000000000000	0.00000000000000	-14.72196300000000	0.00000000000000	
15.80993400000000	-0.92419500000000	139.27018100000001	-13.69087500000000	0.31112400000000	0.00000000000000	0.10512000000000	-48.16045600000000	765.76287600000001	-61.54802000000000	0.05860200000000	0.00000000000000	-0.10138100000000	0.00000000000000	-9.55460100000000	0.00000000000000	0.00000000000000	-14.68530100000000	0.00000000000000	
15.81163300000000	0.33556700000000	146.10887500000001	-13.21312600000000	0.31242100000000	0.00000000000000	0.10562500000000	-48.62966300000000	761.47366799999998	-60.74996800000000	0.05810600000000	0.00000000000000	-0.10121900000000	0.00000000000000	-9.52234200000000	0.00000000000000	0.00000000000000	-14.65152300000000	0.00000000000000	
15.81327600000000	1.62908600000000	153.14896300000001	-12.71149500000000	0.31365300000000	0.00000000000000	0.10611300000000	-49.10484000000000	757.03314799999998	-59.92381600000000	0.05761900000000	0.00000000000000	-0.10105200000000	0.00000000000000	-9.48215800000000	0.00000000000000	0.00000000000000	-14.62053200000000	0.00000000000000	
15.81493900000000	2.95453200000000	160.39303000000001	-12.18702100000000	0.31482600000000	0.00000000000000	0.10658400000000	-49.58516500000000	752.44027800000003	-59.07029500000000	0.05714100000000	0.00000000000000	-0.10087900000000	0.00000000000000	-9.43450400000000	0.00000000000000	0.00000000000000	-14.59220600000000	0.00000000000000	
15.81660400000000	4.31202000000000	167.83598699999999	-11.63846200000000	0.31594300000000	0.00000000000000	0.10703800000000	-50.06973100000000	747.69399999999996	-58.19019000000000	0.05667200000000	0.00000000000000	-0.10070000000000	0.00000000000000	-9.37861300000000	0.00000000000000	0.00000000000000	-14.56640100000000	0.00000000000000	
15.81826700000000	5.70301900000000	175.46653599999999	-11.06290900000000	0.31700800000000	0.00000000000000	0.10747700000000	-50.55754500000000	742.79324199999996	-57.28433200000000	0.05621200000000	0.00000000000000	-0.10051600000000	0.00000000000000	-9.31280000000000	0.00000000000000	0.00000000000000	-14.54294700000000	0.00000000000000	
15.81994200000000	7.12976400000000	183.26877999999999	-10.45640800000000	0.31802400000000	0.00000000000000	0.10790200000000	-51.04753100000000	737.73692800000003	-56.35360200000000	0.05576200000000	0.00000000000000	-0.10032600000000	0.00000000000000	-9.23478300000000	0.00000000000000	0.00000000000000	-14.52165300000000	0.00000000000000	
15.82160800000000	8.59472500000000	191.22384600000001	-9.81454800000000	0.31899300000000	0.00000000000000	0.10831400000000	-51.53853100000000	732.52399100000002	-55.39893000000000	0.05532200000000	0.00000000000000	-0.10013100000000	0.00000000000000	-9.14198300000000	0.00000000000000	0.00000000000000	-14.50230700000000	0.00000000000000	
